<?xml version="1.0" encoding="UTF-8" standalone="no"?>
<!DOCTYPE svg PUBLIC "-//W3C//DTD SVG 1.1//EN" "http://www.w3.org/Graphics/SVG/1.1/DTD/svg11.dtd">
<svg width="100%" height="100%" viewBox="0 0 5100 1350" version="1.1" xmlns="http://www.w3.org/2000/svg" xmlns:xlink="http://www.w3.org/1999/xlink" xml:space="preserve" xmlns:serif="http://www.serif.com/" style="fill-rule:evenodd;clip-rule:evenodd;stroke-linejoin:round;stroke-miterlimit:2;">
    <g transform="matrix(1,0,0,1,120.583,-566.91)">
        <g transform="matrix(26.0248,0,0,26.0248,-7073.75,-5249.78)">
            <path d="M308.511,266.539C306.578,266.539 305.078,265.989 304.011,264.889C302.945,263.789 302.411,262.173 302.411,260.039C302.411,259.639 302.436,259.214 302.486,258.764C302.536,258.314 302.595,257.856 302.661,257.389L304.761,245.239L301.861,245.239L302.061,244.289L308.111,241.439L312.861,237.889L314.161,237.889L313.261,243.039L319.211,243.039L319.211,245.239L312.861,245.239L310.911,256.239C310.811,256.873 310.745,257.331 310.711,257.614C310.678,257.898 310.661,258.139 310.661,258.339C310.661,259.839 311.311,260.589 312.611,260.589C313.378,260.589 314.111,260.281 314.811,259.664C315.511,259.048 316.178,257.923 316.811,256.289L317.961,256.639C317.028,259.606 315.77,261.998 314.186,263.814C312.603,265.631 310.711,266.539 308.511,266.539Z" style="fill:rgb(248,242,232);fill-rule:nonzero;"/>
            <path d="M327.811,266.039L319.661,266.039L325.411,236.864L321.961,235.214L321.961,234.414L334.161,232.414L334.311,232.414L331.111,246.989L331.411,246.989C332.411,245.889 333.278,245.014 334.011,244.364C334.745,243.714 335.478,243.248 336.211,242.964C336.945,242.681 337.811,242.539 338.811,242.539C340.611,242.539 341.986,243.206 342.936,244.539C343.886,245.873 344.161,247.673 343.761,249.939L342.111,259.489C342.011,260.089 342.036,260.589 342.186,260.989C342.336,261.389 342.611,261.589 343.011,261.589C343.478,261.589 343.953,261.331 344.436,260.814C344.92,260.298 345.461,259.373 346.061,258.039L347.161,258.389C346.261,260.823 345.178,262.789 343.911,264.289C342.645,265.789 341.078,266.539 339.211,266.539C337.278,266.539 335.845,265.873 334.911,264.539C333.978,263.206 333.745,261.206 334.211,258.539L335.661,250.189C335.795,249.456 335.753,248.823 335.536,248.289C335.32,247.756 334.828,247.489 334.061,247.489C333.461,247.489 332.878,247.681 332.311,248.064C331.745,248.448 331.195,248.923 330.661,249.489L327.811,266.039Z" style="fill:rgb(248,242,232);fill-rule:nonzero;"/>
            <path d="M358.261,266.539C356.128,266.539 354.345,266.073 352.911,265.139C351.478,264.206 350.403,262.956 349.686,261.389C348.97,259.823 348.611,258.089 348.611,256.189C348.611,254.423 348.936,252.723 349.586,251.089C350.236,249.456 351.128,247.998 352.261,246.714C353.395,245.431 354.72,244.414 356.236,243.664C357.753,242.914 359.378,242.539 361.111,242.539C363.445,242.539 365.37,242.998 366.886,243.914C368.403,244.831 369.536,246.073 370.286,247.639C371.036,249.206 371.411,250.956 371.411,252.889C371.411,254.589 371.103,256.248 370.486,257.864C369.87,259.481 368.978,260.939 367.811,262.239C366.645,263.539 365.261,264.581 363.661,265.364C362.061,266.148 360.261,266.539 358.261,266.539ZM359.011,263.889C359.811,263.889 360.545,263.281 361.211,262.064C361.878,260.848 362.411,259.264 362.811,257.314C363.211,255.364 363.411,253.289 363.411,251.089C363.411,249.023 363.211,247.514 362.811,246.564C362.411,245.614 361.828,245.139 361.061,245.139C360.261,245.139 359.52,245.731 358.836,246.914C358.153,248.098 357.611,249.639 357.211,251.539C356.811,253.439 356.611,255.506 356.611,257.739C356.611,259.539 356.795,261.014 357.161,262.164C357.528,263.314 358.145,263.889 359.011,263.889Z" style="fill:rgb(248,242,232);fill-rule:nonzero;"/>
            <path d="M379.911,266.539C377.978,266.539 376.545,265.873 375.611,264.539C374.678,263.206 374.445,261.206 374.911,258.539L379.325,236.95L375.875,235.3L375.875,234.5L388.075,232.5L388.225,232.5L382.811,259.489C382.711,260.089 382.736,260.589 382.886,260.989C383.036,261.389 383.311,261.589 383.711,261.589C384.178,261.589 384.653,261.331 385.136,260.814C385.62,260.298 386.161,259.373 386.761,258.039L387.861,258.389C386.961,260.823 385.878,262.789 384.611,264.289C383.345,265.789 381.778,266.539 379.911,266.539Z" style="fill:rgb(248,242,232);fill-rule:nonzero;"/>
            <path d="M397.561,266.539C394.728,266.539 392.645,265.723 391.311,264.089C389.978,262.456 389.311,260.256 389.311,257.489C389.311,255.689 389.67,253.906 390.386,252.139C391.103,250.373 392.111,248.764 393.411,247.314C394.711,245.864 396.261,244.706 398.061,243.839C399.861,242.973 401.845,242.539 404.011,242.539C405.778,242.539 407.12,242.931 408.036,243.714C408.953,244.498 409.411,245.473 409.411,246.639C409.411,247.539 409.078,248.373 408.411,249.139C407.745,249.906 406.545,250.673 404.811,251.439C403.078,252.206 400.628,253.006 397.461,253.839L397.461,254.689C397.461,256.289 397.945,257.573 398.911,258.539C399.878,259.506 400.978,259.989 402.211,259.989C403.211,259.989 404.136,259.789 404.986,259.389C405.836,258.989 406.828,258.373 407.961,257.539L408.111,257.539L409.011,258.439C408.278,259.773 407.353,261.056 406.236,262.289C405.12,263.523 403.836,264.539 402.386,265.339C400.936,266.139 399.328,266.539 397.561,266.539ZM402.161,244.789C401.295,244.789 400.411,245.439 399.511,246.739C398.611,248.039 397.995,249.756 397.661,251.889C399.895,251.056 401.453,250.156 402.336,249.189C403.22,248.223 403.661,247.273 403.661,246.339C403.661,245.973 403.57,245.623 403.386,245.289C403.203,244.956 402.795,244.789 402.161,244.789Z" style="fill:rgb(248,242,232);fill-rule:nonzero;"/>
            <path d="M411.411,266.039L414.711,246.989L411.811,245.339L411.811,244.539L422.411,242.539L422.561,242.539L422.561,247.239L422.911,247.239C423.945,246.073 424.845,245.148 425.611,244.464C426.378,243.781 427.136,243.289 427.886,242.989C428.636,242.689 429.528,242.539 430.561,242.539C432.361,242.539 433.736,243.206 434.686,244.539C435.636,245.873 435.911,247.673 435.511,249.939L433.861,259.489C433.761,260.089 433.786,260.589 433.936,260.989C434.086,261.389 434.361,261.589 434.761,261.589C435.228,261.589 435.703,261.331 436.186,260.814C436.67,260.298 437.211,259.373 437.811,258.039L438.911,258.389C438.011,260.823 436.928,262.789 435.661,264.289C434.395,265.789 432.828,266.539 430.961,266.539C429.028,266.539 427.595,265.873 426.661,264.539C425.728,263.206 425.495,261.206 425.961,258.539L427.411,250.189C427.545,249.456 427.503,248.823 427.286,248.289C427.07,247.756 426.578,247.489 425.811,247.489C425.178,247.489 424.57,247.698 423.986,248.114C423.403,248.531 422.845,249.023 422.311,249.589L419.561,266.039L411.411,266.039Z" style="fill:rgb(248,242,232);fill-rule:nonzero;"/>
            <path d="M447.161,266.539C445.228,266.539 443.728,265.989 442.661,264.889C441.595,263.789 441.061,262.173 441.061,260.039C441.061,259.639 441.086,259.214 441.136,258.764C441.186,258.314 441.311,257.389 441.311,257.389L443.411,245.239L440.511,245.239L440.711,244.289L446.761,241.439L451.511,237.889L452.811,237.889L451.911,243.039L457.861,243.039L457.861,245.239L451.511,245.239L449.561,256.239C449.461,256.873 449.395,257.331 449.361,257.614C449.328,257.898 449.311,258.139 449.311,258.339C449.311,259.839 449.961,260.589 451.261,260.589C452.028,260.589 452.761,260.281 453.461,259.664C454.161,259.048 454.828,257.923 455.461,256.289L456.611,256.639C455.678,259.606 454.42,261.998 452.836,263.814C451.253,265.631 449.361,266.539 447.161,266.539Z" style="fill:rgb(248,242,232);fill-rule:nonzero;"/>
        </g>
        <g transform="matrix(0.422138,0,0,0.422138,307.598,1241.91)">
            <g transform="matrix(1,0,0,1,-1200,-1200)">
                <rect id="Artboard1" x="0" y="0" width="2400" height="2400" style="fill:none;"/>
                <g id="Artboard11" serif:id="Artboard1">
                    <g id="light" transform="matrix(1.29552,0,0,1.29552,-386.885,-453.179)">
                        <g transform="matrix(2.22243,0,0,2.22243,-1745.75,-635.471)">
                            <path d="M1312.05,1107.05C1284.85,1107.05 1261.45,1097.25 1241.85,1077.65C1222.25,1058.05 1212.45,1034.65 1212.45,1007.45C1212.45,980.252 1222.25,956.852 1241.85,937.252C1261.45,917.652 1284.85,907.852 1312.05,907.852C1339.25,907.852 1362.65,917.652 1382.25,937.252C1401.85,956.852 1411.65,980.252 1411.65,1007.45C1411.65,1034.65 1401.85,1058.05 1382.25,1077.65C1362.65,1097.25 1339.25,1107.05 1312.05,1107.05ZM1312.05,742.252C1284.85,742.252 1261.45,732.452 1241.85,712.852C1222.25,693.252 1212.45,669.852 1212.45,642.652C1212.45,615.452 1222.25,592.052 1241.85,572.452C1261.45,552.852 1284.85,543.052 1312.05,543.052C1339.25,543.052 1362.65,552.852 1382.25,572.452C1401.85,592.052 1411.65,615.452 1411.65,642.652C1411.65,669.852 1401.85,693.252 1382.25,712.852C1362.65,732.452 1339.25,742.252 1312.05,742.252Z" style="fill:rgb(245,240,232);"/>
                        </g>
                        <g transform="matrix(0.856197,0,0,0.903765,211.913,182.34)">
                            <path d="M1582.84,1994.77C1584.45,1869.21 1584.42,1743.63 1586.03,1618.07C1587.96,1467.79 1590.75,1317.52 1593.46,1167.25L1609.15,337.367C1609.45,321.182 1619.82,311.36 1621.62,309.656C1630.48,301.255 1640.53,299.292 1642.38,298.93C1642.4,298.926 1650.57,298.128 1650.58,298.129C1653.31,298.396 1656.08,298.406 1658.77,298.93C1660.02,299.174 1666.6,300.457 1673.43,304.854C1687.46,313.885 1690.49,327.16 1691.02,329.485C1691.61,332.067 1691.84,334.719 1691.99,337.356C1692.24,341.773 1692.14,346.202 1692.21,350.625L1715.11,1750.57C1716.12,1825.62 1716.78,1900.67 1717.44,1975.72C1717.68,2003.46 1717.97,2031.2 1717.81,2058.94C1717.79,2062.64 1717.54,2066.36 1716.89,2070.01C1716.25,2073.68 1715.26,2077.3 1713.95,2080.79C1712.65,2084.3 1711.01,2087.7 1709.08,2090.94C1707.14,2094.18 1704.84,2097.22 1702.4,2100.14C1700.87,2101.98 1698.96,2103.5 1697.22,2105.15C1696.18,2106.13 1695.23,2107.21 1694.06,2108.03C1690.91,2110.26 1687.73,2112.47 1684.29,2114.27C1680.87,2116.07 1677.27,2117.59 1673.57,2118.79C1669.88,2119.99 1666.06,2120.89 1662.21,2121.47C1658.37,2122.05 1654.46,2122.2 1650.57,2122.24C1635.86,2122.35 1621.15,2122.14 1606.45,2121.91C1547.87,2120.99 1489.3,2120.14 1430.73,2118.81C1313.5,2116.13 1196.29,2113.2 1079.08,2109.87C954.503,2106.33 829.956,2101.92 705.385,2098.17C700.195,2098.02 695,2098.17 689.807,2098.17C672.722,2098.17 662.348,2088.35 660.556,2086.65C654.784,2081.18 652.152,2075.28 651.657,2074.17C650.656,2071.93 644.858,2058.93 651.653,2043.7C658.21,2029.01 671.424,2023.72 673.723,2022.79C676.22,2021.8 678.83,2021.01 681.486,2020.5C684.214,2019.97 687.013,2019.8 689.795,2019.7C694.226,2019.53 698.667,2019.86 703.098,2019.7C807.893,2015.96 912.663,2011.58 1017.46,2008C1302.05,1998.28 1415.89,1996.5 1450.55,1995.96C1494.64,1995.28 1538.75,1995.46 1582.84,1994.77Z" style="fill:rgb(146,142,134);"/>
                        </g>
                    </g>
                </g>
            </g>
        </g>
    </g>
</svg>
